<mxfile host="app.diagrams.net" modified="2023-11-08T01:09:49.761Z" agent="Mozilla/5.0 (Macintosh; Intel Mac OS X 10_15_7) AppleWebKit/537.36 (KHTML, like Gecko) Chrome/118.0.0.0 Safari/537.36" etag="anSyoIyLnFoqzUOmgTRM" version="22.0.8" type="device">
  <diagram name="Page-1" id="1-Cqa379gadhMVTWRp4M">
    <mxGraphModel dx="1434" dy="834" grid="1" gridSize="10" guides="1" tooltips="1" connect="1" arrows="1" fold="1" page="1" pageScale="1" pageWidth="827" pageHeight="1169" math="0" shadow="0">
      <root>
        <mxCell id="0" />
        <mxCell id="1" parent="0" />
        <mxCell id="8OwYAkkY1bKw4eQ4n3bB-1" value="Course" style="rounded=0;whiteSpace=wrap;html=1;fillColor=#dae8fc;strokeColor=#6c8ebf;" vertex="1" parent="1">
          <mxGeometry x="220" y="330" width="120" height="60" as="geometry" />
        </mxCell>
        <mxCell id="8OwYAkkY1bKw4eQ4n3bB-2" value="Semester" style="rounded=0;whiteSpace=wrap;html=1;fillColor=#f8cecc;strokeColor=#b85450;" vertex="1" parent="1">
          <mxGeometry x="220" y="525" width="120" height="60" as="geometry" />
        </mxCell>
        <mxCell id="8OwYAkkY1bKw4eQ4n3bB-3" value="Schedule" style="rounded=0;whiteSpace=wrap;html=1;fillColor=#f8cecc;strokeColor=#b85450;" vertex="1" parent="1">
          <mxGeometry x="710" y="310" width="120" height="60" as="geometry" />
        </mxCell>
        <mxCell id="8OwYAkkY1bKw4eQ4n3bB-4" value="Department" style="rounded=0;whiteSpace=wrap;html=1;fillColor=#dae8fc;strokeColor=#6c8ebf;" vertex="1" parent="1">
          <mxGeometry x="110" y="160" width="120" height="60" as="geometry" />
        </mxCell>
        <mxCell id="8OwYAkkY1bKw4eQ4n3bB-5" value="Instructor" style="rounded=0;whiteSpace=wrap;html=1;fillColor=#dae8fc;strokeColor=#6c8ebf;" vertex="1" parent="1">
          <mxGeometry x="660" y="160" width="120" height="60" as="geometry" />
        </mxCell>
        <mxCell id="8OwYAkkY1bKw4eQ4n3bB-6" value="Location" style="rounded=0;whiteSpace=wrap;html=1;fillColor=#dae8fc;strokeColor=#6c8ebf;" vertex="1" parent="1">
          <mxGeometry x="320" y="440" width="120" height="60" as="geometry" />
        </mxCell>
        <mxCell id="8OwYAkkY1bKw4eQ4n3bB-7" value="CourseOffering" style="rounded=0;whiteSpace=wrap;html=1;fillColor=#dae8fc;strokeColor=#6c8ebf;" vertex="1" parent="1">
          <mxGeometry x="480" y="330" width="120" height="60" as="geometry" />
        </mxCell>
        <mxCell id="8OwYAkkY1bKw4eQ4n3bB-8" value="Term" style="rounded=0;whiteSpace=wrap;html=1;fillColor=#f8cecc;strokeColor=#b85450;" vertex="1" parent="1">
          <mxGeometry x="440" y="525" width="120" height="60" as="geometry" />
        </mxCell>
        <mxCell id="8OwYAkkY1bKw4eQ4n3bB-9" value="Year" style="rounded=0;whiteSpace=wrap;html=1;fillColor=#f8cecc;strokeColor=#b85450;" vertex="1" parent="1">
          <mxGeometry x="650" y="525" width="120" height="60" as="geometry" />
        </mxCell>
        <mxCell id="8OwYAkkY1bKw4eQ4n3bB-15" value="1" style="endArrow=open;html=1;endSize=12;startArrow=diamondThin;startSize=14;startFill=1;edgeStyle=orthogonalEdgeStyle;align=left;verticalAlign=bottom;rounded=0;entryX=0.25;entryY=0;entryDx=0;entryDy=0;exitX=0.5;exitY=1;exitDx=0;exitDy=0;" edge="1" parent="1" source="8OwYAkkY1bKw4eQ4n3bB-4" target="8OwYAkkY1bKw4eQ4n3bB-1">
          <mxGeometry x="-1" y="3" relative="1" as="geometry">
            <mxPoint x="230" y="190" as="sourcePoint" />
            <mxPoint x="350" y="300" as="targetPoint" />
            <Array as="points">
              <mxPoint x="170" y="275" />
              <mxPoint x="250" y="275" />
            </Array>
          </mxGeometry>
        </mxCell>
        <mxCell id="8OwYAkkY1bKw4eQ4n3bB-16" value="0.*" style="edgeLabel;html=1;align=center;verticalAlign=middle;resizable=0;points=[];" vertex="1" connectable="0" parent="8OwYAkkY1bKw4eQ4n3bB-15">
          <mxGeometry x="0.7091" y="2" relative="1" as="geometry">
            <mxPoint x="-2" y="-2" as="offset" />
          </mxGeometry>
        </mxCell>
        <mxCell id="8OwYAkkY1bKw4eQ4n3bB-17" value="1" style="endArrow=open;html=1;endSize=12;startArrow=diamondThin;startSize=14;startFill=1;edgeStyle=orthogonalEdgeStyle;align=left;verticalAlign=bottom;rounded=0;exitX=0.5;exitY=1;exitDx=0;exitDy=0;entryX=0.75;entryY=0;entryDx=0;entryDy=0;" edge="1" parent="1" source="8OwYAkkY1bKw4eQ4n3bB-5" target="8OwYAkkY1bKw4eQ4n3bB-1">
          <mxGeometry x="-1" y="3" relative="1" as="geometry">
            <mxPoint x="180" y="230" as="sourcePoint" />
            <mxPoint x="300" y="320" as="targetPoint" />
          </mxGeometry>
        </mxCell>
        <mxCell id="8OwYAkkY1bKw4eQ4n3bB-18" value="0.*" style="edgeLabel;html=1;align=center;verticalAlign=middle;resizable=0;points=[];" vertex="1" connectable="0" parent="8OwYAkkY1bKw4eQ4n3bB-17">
          <mxGeometry x="0.7091" y="2" relative="1" as="geometry">
            <mxPoint x="-21" y="23" as="offset" />
          </mxGeometry>
        </mxCell>
        <mxCell id="8OwYAkkY1bKw4eQ4n3bB-19" value="1" style="endArrow=open;html=1;endSize=12;startArrow=diamondThin;startSize=14;startFill=1;edgeStyle=orthogonalEdgeStyle;align=left;verticalAlign=bottom;rounded=0;exitX=1;exitY=0.5;exitDx=0;exitDy=0;" edge="1" parent="1" source="8OwYAkkY1bKw4eQ4n3bB-1" target="8OwYAkkY1bKw4eQ4n3bB-7">
          <mxGeometry x="-1" y="3" relative="1" as="geometry">
            <mxPoint x="730" y="230" as="sourcePoint" />
            <mxPoint x="320" y="340" as="targetPoint" />
            <Array as="points">
              <mxPoint x="370" y="360" />
              <mxPoint x="370" y="360" />
            </Array>
          </mxGeometry>
        </mxCell>
        <mxCell id="8OwYAkkY1bKw4eQ4n3bB-20" value="0.*" style="edgeLabel;html=1;align=center;verticalAlign=middle;resizable=0;points=[];" vertex="1" connectable="0" parent="8OwYAkkY1bKw4eQ4n3bB-19">
          <mxGeometry x="0.7091" y="2" relative="1" as="geometry">
            <mxPoint x="-10" y="2" as="offset" />
          </mxGeometry>
        </mxCell>
        <mxCell id="8OwYAkkY1bKw4eQ4n3bB-21" value="" style="endArrow=block;startArrow=block;endFill=1;startFill=1;html=1;rounded=0;exitX=0.25;exitY=1;exitDx=0;exitDy=0;entryX=0.5;entryY=0;entryDx=0;entryDy=0;" edge="1" parent="1" source="8OwYAkkY1bKw4eQ4n3bB-7" target="8OwYAkkY1bKw4eQ4n3bB-6">
          <mxGeometry width="160" relative="1" as="geometry">
            <mxPoint x="500" y="430" as="sourcePoint" />
            <mxPoint x="660" y="430" as="targetPoint" />
            <Array as="points">
              <mxPoint x="510" y="430" />
              <mxPoint x="380" y="410" />
            </Array>
          </mxGeometry>
        </mxCell>
        <mxCell id="8OwYAkkY1bKw4eQ4n3bB-26" value="1" style="edgeLabel;html=1;align=center;verticalAlign=middle;resizable=0;points=[];" vertex="1" connectable="0" parent="8OwYAkkY1bKw4eQ4n3bB-21">
          <mxGeometry x="0.4364" y="1" relative="1" as="geometry">
            <mxPoint x="-1" y="11" as="offset" />
          </mxGeometry>
        </mxCell>
        <mxCell id="8OwYAkkY1bKw4eQ4n3bB-22" value="" style="endArrow=block;startArrow=block;endFill=1;startFill=1;html=1;rounded=0;exitX=1;exitY=0.5;exitDx=0;exitDy=0;entryX=0.75;entryY=0;entryDx=0;entryDy=0;" edge="1" parent="1" target="8OwYAkkY1bKw4eQ4n3bB-8">
          <mxGeometry width="160" relative="1" as="geometry">
            <mxPoint x="530" y="390" as="sourcePoint" />
            <mxPoint x="520" y="510" as="targetPoint" />
            <Array as="points">
              <mxPoint x="530" y="450" />
            </Array>
          </mxGeometry>
        </mxCell>
        <mxCell id="8OwYAkkY1bKw4eQ4n3bB-23" value="" style="endArrow=block;startArrow=block;endFill=1;startFill=1;html=1;rounded=0;exitX=1;exitY=0;exitDx=0;exitDy=0;entryX=0;entryY=0.25;entryDx=0;entryDy=0;" edge="1" parent="1" source="8OwYAkkY1bKw4eQ4n3bB-7" target="8OwYAkkY1bKw4eQ4n3bB-3">
          <mxGeometry width="160" relative="1" as="geometry">
            <mxPoint x="610" y="370" as="sourcePoint" />
            <mxPoint x="660" y="430" as="targetPoint" />
            <Array as="points" />
          </mxGeometry>
        </mxCell>
        <mxCell id="8OwYAkkY1bKw4eQ4n3bB-24" value="" style="endArrow=block;startArrow=block;endFill=1;startFill=1;html=1;rounded=0;exitX=1;exitY=0;exitDx=0;exitDy=0;entryX=0;entryY=0.5;entryDx=0;entryDy=0;" edge="1" parent="1" target="8OwYAkkY1bKw4eQ4n3bB-8">
          <mxGeometry width="160" relative="1" as="geometry">
            <mxPoint x="340" y="555" as="sourcePoint" />
            <mxPoint x="440" y="550" as="targetPoint" />
            <Array as="points" />
          </mxGeometry>
        </mxCell>
        <mxCell id="8OwYAkkY1bKw4eQ4n3bB-25" value="" style="endArrow=block;startArrow=block;endFill=1;startFill=1;html=1;rounded=0;exitX=1;exitY=0.5;exitDx=0;exitDy=0;entryX=0;entryY=0.5;entryDx=0;entryDy=0;" edge="1" parent="1" source="8OwYAkkY1bKw4eQ4n3bB-8" target="8OwYAkkY1bKw4eQ4n3bB-9">
          <mxGeometry width="160" relative="1" as="geometry">
            <mxPoint x="510" y="675" as="sourcePoint" />
            <mxPoint x="610" y="670" as="targetPoint" />
            <Array as="points" />
          </mxGeometry>
        </mxCell>
        <mxCell id="8OwYAkkY1bKw4eQ4n3bB-27" value="0.*" style="edgeLabel;html=1;align=center;verticalAlign=middle;resizable=0;points=[];" vertex="1" connectable="0" parent="1">
          <mxGeometry x="510" y="410" as="geometry" />
        </mxCell>
        <mxCell id="8OwYAkkY1bKw4eQ4n3bB-28" value="0.*" style="edgeLabel;html=1;align=center;verticalAlign=middle;resizable=0;points=[];" vertex="1" connectable="0" parent="1">
          <mxGeometry x="620" y="330" as="geometry" />
        </mxCell>
        <mxCell id="8OwYAkkY1bKw4eQ4n3bB-29" value="0.*" style="edgeLabel;html=1;align=center;verticalAlign=middle;resizable=0;points=[];" vertex="1" connectable="0" parent="1">
          <mxGeometry x="530" y="400" as="geometry" />
        </mxCell>
        <mxCell id="8OwYAkkY1bKw4eQ4n3bB-30" value="0.*" style="edgeLabel;html=1;align=center;verticalAlign=middle;resizable=0;points=[];" vertex="1" connectable="0" parent="1">
          <mxGeometry x="420" y="555" as="geometry" />
        </mxCell>
        <mxCell id="8OwYAkkY1bKw4eQ4n3bB-31" value="0.*" style="edgeLabel;html=1;align=center;verticalAlign=middle;resizable=0;points=[];" vertex="1" connectable="0" parent="1">
          <mxGeometry x="580" y="555" as="geometry" />
        </mxCell>
        <mxCell id="8OwYAkkY1bKw4eQ4n3bB-32" value="1" style="edgeLabel;html=1;align=center;verticalAlign=middle;resizable=0;points=[];" vertex="1" connectable="0" parent="1">
          <mxGeometry x="630" y="555" as="geometry" />
        </mxCell>
        <mxCell id="8OwYAkkY1bKw4eQ4n3bB-33" value="1" style="edgeLabel;html=1;align=center;verticalAlign=middle;resizable=0;points=[];" vertex="1" connectable="0" parent="1">
          <mxGeometry x="360" y="555" as="geometry" />
        </mxCell>
        <mxCell id="8OwYAkkY1bKw4eQ4n3bB-34" value="1" style="edgeLabel;html=1;align=center;verticalAlign=middle;resizable=0;points=[];" vertex="1" connectable="0" parent="1">
          <mxGeometry x="650" y="460" as="geometry">
            <mxPoint x="-119" y="41" as="offset" />
          </mxGeometry>
        </mxCell>
        <mxCell id="8OwYAkkY1bKw4eQ4n3bB-35" value="1" style="edgeLabel;html=1;align=center;verticalAlign=middle;resizable=0;points=[];" vertex="1" connectable="0" parent="1">
          <mxGeometry x="690" y="430" as="geometry">
            <mxPoint x="-10" y="-105" as="offset" />
          </mxGeometry>
        </mxCell>
      </root>
    </mxGraphModel>
  </diagram>
</mxfile>
